<!-- icon666.com - MILLIONS vector ICONS FREE --><svg clip-rule="evenodd" fill-rule="evenodd" image-rendering="optimizeQuality" shape-rendering="geometricPrecision" text-rendering="geometricPrecision" viewBox="0 0 2.83333 2.83333" xmlns="http://www.w3.org/2000/svg" xmlns:xlink="http://www.w3.org/1999/xlink"><linearGradient id="id0" gradientUnits="userSpaceOnUse" x1="1.417" x2="1.417" y1="2.833" y2="0"><stop offset="0" stop-color="#262261"></stop><stop offset=".0117647" stop-color="#262261"></stop><stop offset=".0196078" stop-color="#262261"></stop><stop offset=".0313725" stop-color="#262261"></stop><stop offset=".0392157" stop-color="#262261"></stop><stop offset=".0509804" stop-color="#262261"></stop><stop offset=".0588235" stop-color="#292363"></stop><stop offset=".0705882" stop-color="#2c2365"></stop><stop offset=".0784314" stop-color="#2f2468"></stop><stop offset=".0901961" stop-color="#32246a"></stop><stop offset=".101961" stop-color="#35256c"></stop><stop offset=".109804" stop-color="#37256e"></stop><stop offset=".121569" stop-color="#3a2670"></stop><stop offset=".129412" stop-color="#3d2672"></stop><stop offset=".141176" stop-color="#3f2774"></stop><stop offset=".14902" stop-color="#422776"></stop><stop offset=".160784" stop-color="#442777"></stop><stop offset=".168627" stop-color="#462879"></stop><stop offset=".180392" stop-color="#48287a"></stop><stop offset=".188235" stop-color="#4a287c"></stop><stop offset=".2" stop-color="#4c297d"></stop><stop offset=".211765" stop-color="#4e297f"></stop><stop offset=".219608" stop-color="#502980"></stop><stop offset=".231373" stop-color="#512981"></stop><stop offset=".239216" stop-color="#532a83"></stop><stop offset=".25098" stop-color="#552a84"></stop><stop offset=".258824" stop-color="#562a85"></stop><stop offset=".270588" stop-color="#582a86"></stop><stop offset=".278431" stop-color="#592b87"></stop><stop offset=".290196" stop-color="#5a2b88"></stop><stop offset=".301961" stop-color="#5b2b89"></stop><stop offset=".309804" stop-color="#5c2b8a"></stop><stop offset=".321569" stop-color="#5e2b8a"></stop><stop offset=".329412" stop-color="#5f2c8b"></stop><stop offset=".341176" stop-color="#602c8c"></stop><stop offset=".34902" stop-color="#612c8d"></stop><stop offset=".360784" stop-color="#612c8d"></stop><stop offset=".368627" stop-color="#622c8e"></stop><stop offset=".380392" stop-color="#622c8e"></stop><stop offset=".388235" stop-color="#632c8e"></stop><stop offset=".4" stop-color="#632d8f"></stop><stop offset=".411765" stop-color="#632d8f"></stop><stop offset=".419608" stop-color="#642d8f"></stop><stop offset=".431373" stop-color="#642d8f"></stop><stop offset=".439216" stop-color="#652d90"></stop><stop offset=".45098" stop-color="#652d90"></stop><stop offset=".458824" stop-color="#672d90"></stop><stop offset=".470588" stop-color="#682d90"></stop><stop offset=".478431" stop-color="#6a2c90"></stop><stop offset=".490196" stop-color="#6b2c90"></stop><stop offset=".501961" stop-color="#6d2c90"></stop><stop offset=".509804" stop-color="#6e2c90"></stop><stop offset=".521569" stop-color="#702c90"></stop><stop offset=".529412" stop-color="#712b90"></stop><stop offset=".541176" stop-color="#722b90"></stop><stop offset=".54902" stop-color="#732b90"></stop><stop offset=".560784" stop-color="#752b90"></stop><stop offset=".568627" stop-color="#762b90"></stop><stop offset=".580392" stop-color="#772a8f"></stop><stop offset=".588235" stop-color="#782a8f"></stop><stop offset=".6" stop-color="#792a8f"></stop><stop offset=".611765" stop-color="#7a2a8f"></stop><stop offset=".619608" stop-color="#7c2a8f"></stop><stop offset=".631373" stop-color="#7d2a8f"></stop><stop offset=".639216" stop-color="#7e298f"></stop><stop offset=".65098" stop-color="#7f298f"></stop><stop offset=".658824" stop-color="#80298f"></stop><stop offset=".670588" stop-color="#81298f"></stop><stop offset=".678431" stop-color="#82298f"></stop><stop offset=".690196" stop-color="#82298f"></stop><stop offset=".701961" stop-color="#83298f"></stop><stop offset=".709804" stop-color="#84298f"></stop><stop offset=".721569" stop-color="#85298f"></stop><stop offset=".729412" stop-color="#85298f"></stop><stop offset=".741176" stop-color="#86288e"></stop><stop offset=".74902" stop-color="#87288e"></stop><stop offset=".760784" stop-color="#87288e"></stop><stop offset=".768627" stop-color="#88288e"></stop><stop offset=".780392" stop-color="#89288e"></stop><stop offset=".788235" stop-color="#89288e"></stop><stop offset=".8" stop-color="#8a288e"></stop><stop offset=".811765" stop-color="#8b288e"></stop><stop offset=".819608" stop-color="#8b288e"></stop><stop offset=".831373" stop-color="#8c288e"></stop><stop offset=".839216" stop-color="#8c288e"></stop><stop offset=".85098" stop-color="#8d288e"></stop><stop offset=".858824" stop-color="#8d288e"></stop><stop offset=".870588" stop-color="#8d288e"></stop><stop offset=".878431" stop-color="#8d288e"></stop><stop offset=".890196" stop-color="#8e288e"></stop><stop offset=".901961" stop-color="#8e288e"></stop><stop offset=".909804" stop-color="#8e278e"></stop><stop offset=".921569" stop-color="#8e278e"></stop><stop offset=".929412" stop-color="#8e278e"></stop><stop offset=".941176" stop-color="#8f278e"></stop><stop offset=".94902" stop-color="#8f278e"></stop><stop offset=".960784" stop-color="#8f278e"></stop><stop offset=".968627" stop-color="#8f278e"></stop><stop offset=".980392" stop-color="#90278e"></stop><stop offset=".988235" stop-color="#90278e"></stop><stop offset="1" stop-color="#90278e"></stop></linearGradient><g id="Layer_x0020_1"><path d="m2.83333 1.41667c0-.782406-.63426-1.41667-1.41667-1.41667-.782406 0-1.41667.63426-1.41667 1.41667 0 .782406.63426 1.41667 1.41667 1.41667.782406 0 1.41667-.63426 1.41667-1.41667z" fill="url(#id0)" style="fill: rgb(16, 58, 88);"></path><path d="m2.01906 1.77297.00000394-.799953c0-.00277165-.00416142-.0083189-.0110945-.0083189h-1.18537c-.00554724 0-.00970472.00416142-.00970472.0083189v.799953h1.20617zm-.324417-.203799h-.555949c-.0138622 0-.0249528-.0110906-.0249528-.0249528s.0110906-.0249567.0249528-.0249567h.555949c.0138622 0 .0249528.0110945.0249528.0249567s-.0110906.0249528-.0249528.0249528zm.140028.120618h-.836004c-.0138622 0-.0249567-.0110945-.0249567-.0249567s.0110945-.0249567.0249567-.0249567h.836004c.0138622 0 .0249567.0110945.0249567.0249567s-.0124803.0249567-.0249567.0249567zm-.672406-.256484c-.0138661 0-.0249567-.0110945-.0249567-.0249567v-.0873425h-.0998228c-.00970472 0-.0180197-.00554724-.022185-.0138622-.00415748-.0083189-.00277165-.0180236.00277165-.0249567l.12478-.166366c.00693307-.0083189.0166378-.0110945.0277244-.0083189.00970472.00277165.0166378.0124764.0166378.0235709l.00000394.141409h.0429803c.0138622 0 .0249528.0110906.0249528.0249567 0 .0138622-.0110906.0235669-.0249528.0235669h-.0429803v.0873425c0 .0138661-.0110906.0249567-.0249528.0249567zm-.0762559-.160823h.052685v-.0693189zm.641906.160823c-.0138622 0-.0249567-.0110945-.0249567-.0249567v-.0873425h-.0998189c-.00970472 0-.0180197-.00554724-.0221811-.0138622-.00416142-.0083189-.00277165-.0180236.00276772-.0249567l.12478-.166366c.00693307-.0083189.0166378-.0110945.0277244-.0083189.00970472.00277165.0166417.0124764.0166417.0235709v.141409h.0429803c.0138622 0 .0249567.0110906.0249567.0249567 0 .0138622-.0110945.0249528-.0249567.0249528h-.0429803v.0873425c-.00138583.0124803-.0124764.0235709-.0249567.0235709zm-.076252-.160823h.052685v-.0693189zm-.217665.160823c-.0582283 0-.105366-.0471378-.105366-.106752v-.116457c0-.0582283.0471339-.10537.105366-.10537.0582283 0 .106752.0471378.106752.10537v.117843c0 .0582283-.0485236.105366-.106752.105366zm0-.278665c-.0318858 0-.0568386.0249528-.0568386.0568386l-.00000394.116461c0 .0318898.0249567.0582283.0568386.0582283.0318898 0 .0582283-.0263425.0582283-.0582283v-.116457c.00000394-.0318898-.0263346-.0568425-.0582244-.0568425zm.187165.756972h-.408988c-.0138622 0-.0249567-.0110906-.0249567-.0249567v-.0637717h-.575358v.0720906c0 .0388189.0318898.0707087.0720906.0707087h1.46543c.0388189 0 .0707087-.0318898.0707087-.0707087v-.0720906h-.573972v.0637756c-.00138976.0138661-.0124764.0249528-.0249567.0249528zm-.384031-.0887283v.0388189l.359075.00000394v-.0388228h-.359075zm-.47415-.0499134v-.799953c0-.0305039.0263425-.0568425.0582244-.0568425h1.18538c.0318898 0 .0596142.0263425.0596142.0568425v.799953h.0526811v-.799953c0-.0582283-.0499094-.10398-.110913-.10398l-1.18537.00000394c-.0610039 0-.110913.0471339-.110913.10398v.799949h.0512992zm1.3864.23985h-1.46543c-.0665472 0-.120618-.0540709-.120618-.119232v-.0956614c0-.0138622.0110906-.0249567.0249567-.0249567h.0734764v-.799953c0-.0845709.0707087-.152504.159437-.152504h1.18538c.0873425 0 .159437.0693189.159437.152504v.799953h.0790236c.0138661 0 .0249567.0110945.0249567.0249567v.0956614c-.00138583.0651614-.0554567.119232-.120618.119232z" fill="#fff"></path></g></svg>