<svg width="16.941406" height="23.000000" viewBox="0 0 16.9414 23" fill="none" xmlns="http://www.w3.org/2000/svg" xmlns:xlink="http://www.w3.org/1999/xlink">
	<desc>
			Created with Pixso.
	</desc>
	<defs/>
	<path id="Vector" d="M14.6797 6.99731C14.6797 6.79892 14.8203 6.63794 14.9941 6.63794C15.168 6.63794 15.3105 6.79962 15.3105 6.99731L15.3105 20.7839C15.3105 21.3925 15.0898 21.9466 14.7383 22.3486C14.3848 22.7499 13.8984 23 13.3633 23L3.57812 23C3.04297 23 2.55469 22.7499 2.20312 22.3486C1.84961 21.9473 1.63086 21.3933 1.63086 20.7839L1.63086 6.99731C1.63086 6.79892 1.77148 6.63794 1.94727 6.63794C2.12109 6.63794 2.26172 6.79962 2.26172 6.99731L2.26172 20.7839C2.26172 21.1942 2.41016 21.5693 2.64844 21.8402C2.88672 22.1113 3.2168 22.2812 3.57617 22.2812L13.3633 22.2812C13.7227 22.2812 14.0527 22.1112 14.291 21.8402C14.5293 21.5685 14.6777 21.1941 14.6777 20.7846L14.6777 6.99731L14.6797 6.99731Z" fill="#103A58" fill-opacity="1.000000" fill-rule="nonzero"/>
	<path id="Vector" d="M6.11523 19.8555C6.11523 20.0539 5.97461 20.2148 5.80078 20.2148C5.625 20.2148 5.48438 20.0539 5.48438 19.8555L5.48438 7.09015C5.48438 6.89175 5.625 6.73077 5.80078 6.73077C5.97461 6.73077 6.11523 6.89175 6.11523 7.09015L6.11523 19.8555Z" fill="#103A58" fill-opacity="1.000000" fill-rule="nonzero"/>
	<path id="Vector" d="M8.78711 19.8555C8.78711 20.0539 8.64648 20.2148 8.47266 20.2148C8.29688 20.2148 8.15625 20.0539 8.15625 19.8555L8.15625 7.09015C8.15625 6.89175 8.29688 6.73077 8.47266 6.73077C8.64648 6.73077 8.78711 6.89175 8.78711 7.09015L8.78711 19.8555Z" fill="#103A58" fill-opacity="1.000000" fill-rule="nonzero"/>
	<path id="Vector" d="M11.457 19.8555C11.457 20.0539 11.3164 20.2148 11.1426 20.2148C10.9668 20.2148 10.8262 20.0539 10.8262 19.8555L10.8262 7.09015C10.8262 6.89175 10.9668 6.73077 11.1426 6.73077C11.3164 6.73077 11.457 6.89175 11.457 7.09015L11.457 19.8555Z" fill="#103A58" fill-opacity="1.000000" fill-rule="nonzero"/>
	<path id="Vector" d="M5.93164 2.21616C5.93164 2.41455 5.79102 2.57553 5.61719 2.57553C5.44141 2.57553 5.30078 2.41455 5.30078 2.21616C5.30078 1.60596 5.51953 1.05194 5.87305 0.650635C6.22461 0.249298 6.71094 0 7.24805 0L9.69336 0C10.2285 0 10.7168 0.250061 11.0684 0.651367C11.4219 1.05264 11.6406 1.60818 11.6406 2.21616C11.6406 2.41455 11.5 2.57553 11.3242 2.57553C11.1504 2.57553 11.0098 2.41455 11.0098 2.21616C11.0098 1.80588 10.8613 1.43076 10.623 1.15973C10.3848 0.888702 10.0547 0.71875 9.69531 0.71875L7.24805 0.71875C6.88672 0.71875 6.55859 0.887939 6.32031 1.159C6.08008 1.43076 5.93164 1.80511 5.93164 2.21616Z" fill="#103A58" fill-opacity="1.000000" fill-rule="nonzero"/>
	<path id="Vector" d="M1.13086 3.24933L15.8105 3.24933C16.1191 3.24933 16.4023 3.39383 16.6074 3.62744L16.6094 3.62894C16.8145 3.86252 16.9414 4.18448 16.9414 4.53711L16.9414 5.46552C16.9414 5.66388 16.8008 5.82486 16.625 5.82486L16.6172 5.82486L0.316406 5.82486C0.140625 5.82486 0 5.66388 0 5.46552L0 5.45651L0 4.53711C0 4.18524 0.126953 3.86252 0.332031 3.62894L0.333984 3.62744C0.539062 3.39386 0.822266 3.24933 1.13086 3.24933ZM15.8105 3.96811L1.13086 3.96811C0.994141 3.96811 0.867188 4.03177 0.779297 4.13431L0.777344 4.1358C0.6875 4.23761 0.630859 4.37988 0.630859 4.53711L0.630859 5.10611L16.3086 5.10611L16.3086 4.53711C16.3086 4.38065 16.2539 4.23764 16.1641 4.1358L16.1621 4.13431C16.0723 4.03177 15.9473 3.96811 15.8105 3.96811Z" fill="#103A58" fill-opacity="1.000000" fill-rule="nonzero"/>
</svg>
