<svg width="16.000000" height="16.000000" viewBox="0 0 16 16" fill="none" xmlns="http://www.w3.org/2000/svg" xmlns:xlink="http://www.w3.org/1999/xlink">
	<desc>
			Created with Pixso.
	</desc>
	<defs>
		<clipPath id="clip4448_908">
			<rect id="Plus 2" width="16.000000" height="16.000000" fill="white" fill-opacity="0"/>
		</clipPath>
	</defs>
	<g clip-path="url(#clip4448_908)">
		<path id="Vector" d="M12.4375 6.90625L9.15625 6.90625L9.15625 3.625C9.15625 3.28125 8.875 3 8.53125 3C8.1875 3 7.90625 3.28125 7.90625 3.625L7.90625 6.90625L4.625 6.90625C4.28125 6.90625 4 7.1875 4 7.53125C4 7.875 4.28125 8.15625 4.625 8.15625L7.90625 8.15625L7.90625 11.4375C7.90625 11.7812 8.1875 12.0625 8.53125 12.0625C8.875 12.0625 9.15625 11.7812 9.15625 11.4375L9.15625 8.15625L12.4375 8.15625C12.7812 8.15625 13.0625 7.875 13.0625 7.53125C13.0625 7.1875 12.7812 6.90625 12.4375 6.90625Z" fill="#103A58" fill-opacity="1.000000" fill-rule="nonzero"/>
	</g>
</svg>
