<svg width="22" height="22" fill="none" xmlns="http://www.w3.org/2000/svg"><path d="M18.986 12.43c.088-.482.135-.977.135-1.47a8.08 8.08 0 00-2.378-5.738 8.073 8.073 0 00-2.58-1.74 8.063 8.063 0 00-3.159-.637 8.14 8.14 0 00-1.536.146 4.836 4.836 0 00-2.258-.563c-1.282 0-2.49.5-3.397 1.407a4.775 4.775 0 00-1.407 3.397c0 .816.21 1.62.604 2.329-.08.46-.122.93-.122 1.398 0 1.096.214 2.16.638 3.158a8.075 8.075 0 001.738 2.58 8.073 8.073 0 002.58 1.739 8.061 8.061 0 004.58.511 4.81 4.81 0 002.364.623c1.282 0 2.49-.498 3.396-1.407a4.766 4.766 0 001.408-3.397 4.779 4.779 0 00-.606-2.335zm-7.95 3.5c-2.883 0-4.172-1.417-4.172-2.479 0-.545.402-.926.956-.926 1.234 0 .916 1.773 3.216 1.773 1.18 0 1.831-.64 1.831-1.296 0-.393-.193-.831-.971-1.022l-2.565-.64C7.266 10.821 6.89 9.704 6.89 8.655c0-2.178 2.052-2.997 3.979-2.997 1.775 0 3.867.982 3.867 2.288 0 .56-.485.885-1.04.885-1.052 0-.86-1.456-2.98-1.456-1.052 0-1.635.477-1.635 1.158 0 .68.832.898 1.554 1.063l1.899.421c2.08.464 2.606 1.678 2.606 2.821 0 1.768-1.36 3.092-4.104 3.092z" fill="url(#paint0_linear_46_125)"/><defs><linearGradient id="paint0_linear_46_125" x1="10.999" y1="2.428" x2="10.999" y2="19.57" gradientUnits="userSpaceOnUse"><stop stop-color="#5FC9F3"/><stop offset="1" stop-color="#55ABF5"/></linearGradient></defs></svg>