<svg width="18" height="18" fill="none" xmlns="http://www.w3.org/2000/svg"><path d="M17.659 6.708a.212.212 0 01.341.165v7.19c0 .931-.756 1.687-1.688 1.687H1.688A1.688 1.688 0 010 14.062V6.878c0-.176.2-.275.341-.166.788.612 1.832 1.389 5.418 3.994.741.541 1.993 1.68 3.241 1.674 1.255.01 2.531-1.154 3.245-1.674C15.83 8.1 16.872 7.32 17.659 6.708zM9 11.25c.816.014 1.99-1.027 2.58-1.455 4.666-3.386 5.02-3.681 6.097-4.525A.841.841 0 0018 4.605v-.668c0-.931-.756-1.687-1.688-1.687H1.688C.756 2.25 0 3.006 0 3.938v.667c0 .26.12.503.323.665C1.4 6.11 1.754 6.409 6.42 9.795c.59.428 1.764 1.47 2.58 1.455z" fill="url(#paint0_linear_46_185)"/><defs><linearGradient id="paint0_linear_46_185" x1="9" y1="2.25" x2="9" y2="15.75" gradientUnits="userSpaceOnUse"><stop stop-color="#5FC9F3"/><stop offset="1" stop-color="#55ABF5"/></linearGradient></defs></svg>