<svg width="26" height="26" viewBox="0 0 26 26" fill="none" xmlns="http://www.w3.org/2000/svg">
<path d="M12.7466 8.49819C10.4054 8.49819 8.49484 10.4088 8.49484 12.75C8.49484 15.0912 10.4054 17.0018 12.7466 17.0018C15.0877 17.0018 16.9983 15.0912 16.9983 12.75C16.9983 10.4088 15.0877 8.49819 12.7466 8.49819ZM25.4986 12.75C25.4986 10.9893 25.5145 9.24457 25.4156 7.48707C25.3168 5.44569 24.8511 3.63397 23.3584 2.14121C21.8624 0.645259 20.0539 0.182759 18.0126 0.0838797C16.2519 -0.0149996 14.5072 0.000948744 12.7498 0.000948744C10.9891 0.000948744 9.2444 -0.0149996 7.48693 0.0838797C5.44559 0.182759 3.6339 0.648449 2.14117 2.14121C0.645247 3.63716 0.182756 5.44569 0.0838782 7.48707C-0.0149993 9.24776 0.000948727 10.9925 0.000948727 12.75C0.000948727 14.5075 -0.0149993 16.2554 0.0838782 18.0129C0.182756 20.0543 0.648437 21.866 2.14117 23.3588C3.63709 24.8547 5.44559 25.3172 7.48693 25.4161C9.24759 25.515 10.9923 25.4991 12.7498 25.4991C14.5104 25.4991 16.2551 25.515 18.0126 25.4161C20.0539 25.3172 21.8656 24.8516 23.3584 23.3588C24.8543 21.8628 25.3168 20.0543 25.4156 18.0129C25.5177 16.2554 25.4986 14.5107 25.4986 12.75ZM12.7466 19.292C9.12638 19.292 6.20471 16.3703 6.20471 12.75C6.20471 9.12974 9.12638 6.20802 12.7466 6.20802C16.3668 6.20802 19.2884 9.12974 19.2884 12.75C19.2884 16.3703 16.3668 19.292 12.7466 19.292ZM19.5564 7.46793C18.7111 7.46793 18.0285 6.78535 18.0285 5.94009C18.0285 5.09483 18.7111 4.41224 19.5564 4.41224C20.4016 4.41224 21.0842 5.09483 21.0842 5.94009C21.0844 6.1408 21.0451 6.33958 20.9684 6.52507C20.8917 6.71055 20.7792 6.87907 20.6373 7.021C20.4953 7.16292 20.3268 7.27545 20.1413 7.35214C19.9559 7.42884 19.7571 7.46818 19.5564 7.46793Z" fill="#103A58"/>
</svg>
