<svg width="25.000000" height="25.000000" viewBox="0 0 25 25" fill="none" xmlns="http://www.w3.org/2000/svg" xmlns:xlink="http://www.w3.org/1999/xlink">
	<desc>
			Created with Pixso.
	</desc>
	<defs>
		<clipPath id="clip47_1028">
			<rect id="logout_111063" width="25.000000" height="25.000000" fill="white" fill-opacity="0"/>
		</clipPath>
	</defs>
	<g clip-path="url(#clip47_1028)">
		<g opacity="0.000000">
			<rect id="rect" x="25.000000" width="25.000000" height="25.000000" transform="rotate(90 25.000000 0.000000)" fill="#FFFFFF" fill-opacity="1.000000"/>
		</g>
		<path id="path" d="M7.29102 6.25C7.98633 6.25 8.33203 5.90271 8.33203 5.20825C8.33203 4.51379 7.98633 4.16663 7.29102 4.16663L5.20703 4.16663C4.51367 4.16663 4.16602 4.51379 4.16602 5.20825L4.16602 19.7916C4.16602 20.4861 4.51367 20.8333 5.20703 20.8333L7.29102 20.8333C7.98633 20.8333 8.33203 20.4861 8.33203 19.7916C8.33203 19.0972 7.98633 18.75 7.29102 18.75L6.25 18.75L6.25 6.25L7.29102 6.25Z" fill="#103A58" fill-opacity="1.000000" fill-rule="nonzero"/>
		<path id="path" d="M21.6875 11.8958L18.75 7.72913C18.3496 7.16565 17.8672 7.08228 17.3027 7.47913C16.7285 7.88123 16.6445 8.36731 17.0527 8.9375L18.8438 11.4583L10.416 11.4583C9.72266 11.4583 9.375 11.8055 9.375 12.5C9.375 13.1945 9.72266 13.5416 10.416 13.5416L18.75 13.5416L16.875 16.0416C16.459 16.5972 16.5273 17.0833 17.084 17.5C17.2676 17.6388 17.4766 17.7083 17.709 17.7083C18.0547 17.7083 18.334 17.5695 18.541 17.2916L21.666 13.125C21.9727 12.7203 21.9805 12.3105 21.6875 11.8958Z" fill="#103A58" fill-opacity="1.000000" fill-rule="nonzero"/>
	</g>
</svg>
