<svg width="20" height="20" fill="none" xmlns="http://www.w3.org/2000/svg"><path d="M16.9 2.217c-.833-.184-1.45-1.175-2.258-1.35-.809-.175-1.809.458-2.625.275a3.05 3.05 0 00-2.617.283l-.058 11.908-.175.834a2.504 2.504 0 001.908 2.983 2.506 2.506 0 002.975-1.908l.175-.834 4.942-10.841a3.024 3.024 0 00-2.267-1.35zm-4.475 12.666a.86.86 0 01-1.008.659.847.847 0 01-.659-1.017l.717-3.275a.834.834 0 011.642.283c0 .034-.009.059-.017.092l-.675 3.258zM8.1 16.95a3.906 3.906 0 01-.6-1.667L6.867 12.5c-.117-.442.141-.9.633-1.033a.67.67 0 01.183 0V2.025c-.758 0-1.666-.475-2.366-.308-.7.166-1.409 1.15-2.217 1.333A3.025 3.025 0 00.833 4.4l4.942 10.833.175.834a2.502 2.502 0 002.975 1.908h.083A3.94 3.94 0 018.1 16.95z" fill="#fff"/></svg>