<svg width="26" height="26" fill="none" xmlns="http://www.w3.org/2000/svg"><g clip-path="url(#clip0_4_3)"><path d="M16.664.25H8.836C1.69.25 0 1.942 0 9.086v7.828c0 7.144 1.692 8.836 8.836 8.836h7.828c7.144 0 8.836-1.692 8.836-8.836V9.086C25.5 1.94 23.79.25 16.664.25zm3.923 18.193h-1.853c-.701 0-.918-.558-2.178-1.835-1.098-1.062-1.583-1.206-1.853-1.206-.378 0-.487.109-.487.63v1.674c0 .45-.143.72-1.331.72-1.961 0-4.14-1.188-5.668-3.402-2.304-3.238-2.935-5.668-2.935-6.172 0-.27.108-.522.63-.522h1.853c.467 0 .648.216.829.72.917 2.645 2.447 4.967 3.077 4.967.233 0 .342-.109.342-.701v-2.737c-.072-1.26-.739-1.368-.739-1.817 0-.217.181-.433.468-.433h2.915c.397 0 .54.216.54.683v3.69c0 .396.18.54.288.54.234 0 .433-.144.864-.576 1.332-1.494 2.285-3.797 2.285-3.797.127-.27.342-.522.811-.522h1.853c.558 0 .684.287.558.684-.234 1.08-2.501 4.282-2.501 4.282-.198.324-.27.468 0 .83.197.27.845.827 1.278 1.33.791.9 1.402 1.656 1.565 2.179.18.52-.09.79-.612.79l.001.001z" fill="#fff"/></g><defs><clipPath id="clip0_4_3"><path fill="#fff" transform="translate(0 .25)" d="M0 0h25.5v25.5H0z"/></clipPath></defs></svg>