<svg width="26" height="26" fill="none" xmlns="http://www.w3.org/2000/svg"><g clip-path="url(#clip0_4_7)"><path d="M20.719.25c1.317 0 2.443.468 3.378 1.403S25.5 3.714 25.5 5.03v15.94c0 1.317-.468 2.443-1.403 3.378s-2.061 1.403-3.378 1.403h-3.121v-9.878H20.9l.498-3.851h-3.801V9.563c0-.62.13-1.084.39-1.394.26-.31.766-.465 1.519-.465l2.025-.016V4.25c-.697-.1-1.682-.15-2.955-.15-1.505 0-2.709.443-3.61 1.329-.903.885-1.354 2.136-1.354 3.752v2.838h-3.32v3.852h3.32v9.878H4.781c-1.317 0-2.443-.468-3.378-1.403S0 22.286 0 20.97V5.03c0-1.317.468-2.443 1.403-3.378S3.464.25 4.78.25h15.94z" fill="#fff"/></g><defs><clipPath id="clip0_4_7"><path fill="#fff" transform="translate(0 .25)" d="M0 0h25.5v25.5H0z"/></clipPath></defs></svg>