<svg width="23" height="17" fill="none" xmlns="http://www.w3.org/2000/svg"><g clip-path="url(#clip0_2_62)"><path d="M23 16.292a.676.676 0 01-.213.498.696.696 0 01-.506.21.696.696 0 01-.505-.21.676.676 0 01-.213-.498v-9.32l-7.93 3.919c-.598.295-1.31.442-2.133.442-.824 0-1.535-.147-2.134-.442L.876 6.707C.292 6.412 0 6.061 0 5.656c0-.406.292-.75.876-1.03L9.366.443C9.966.148 10.676 0 11.5 0c.824 0 1.535.148 2.134.443l8.49 4.183c.51.251.794.561.854.93.014.015.022.044.022.089v10.647zm-8.648-3.985l4.335-2.147v3.121c0 .635-.7 1.177-2.1 1.627-1.4.45-3.095.675-5.087.675-1.992 0-3.687-.225-5.087-.675-1.4-.45-2.1-.992-2.1-1.627v-3.12l4.334 2.146c.6.295 1.55.443 2.853.443 1.303 0 2.254-.148 2.852-.443z" fill="#fff"/></g><defs><clipPath id="clip0_2_62"><path fill="#fff" d="M0 0h23v17H0z"/></clipPath></defs></svg>