<svg width="26" height="26" fill="none" xmlns="http://www.w3.org/2000/svg"><g clip-path="url(#clip0_4226_815)"><path d="M12.747 8.498a4.26 4.26 0 00-4.252 4.252 4.26 4.26 0 004.252 4.252 4.26 4.26 0 004.251-4.252 4.26 4.26 0 00-4.251-4.252zm12.752 4.252c0-1.76.016-3.505-.083-5.263-.1-2.041-.565-3.853-2.058-5.346C21.862.645 20.054.183 18.013.084 16.252-.015 14.507 0 12.75 0c-1.76 0-3.506-.016-5.263.083-2.041.1-3.853.565-5.347 2.057C.645 3.637.183 5.446.084 7.487-.015 9.247 0 10.992 0 12.75s-.016 3.505.083 5.263c.099 2.041.564 3.853 2.057 5.346 1.496 1.496 3.305 1.958 5.346 2.057 1.76.099 3.505.083 5.263.083 1.76 0 3.505.016 5.263-.083 2.04-.099 3.853-.564 5.345-2.057 1.496-1.496 1.959-3.305 2.058-5.346.102-1.758.083-3.502.083-5.263zm-12.752 6.542a6.533 6.533 0 01-6.542-6.542 6.533 6.533 0 016.542-6.542 6.533 6.533 0 016.541 6.542 6.533 6.533 0 01-6.541 6.542zm6.81-11.824a1.526 1.526 0 01-1.528-1.528c0-.845.682-1.528 1.527-1.528a1.526 1.526 0 011.412 2.113 1.526 1.526 0 01-1.412.943z" fill="#fff"/></g><defs><clipPath id="clip0_4226_815"><path fill="#fff" d="M0 0h25.5v25.5H0z"/></clipPath></defs></svg>