<svg width="18" height="20" fill="none" xmlns="http://www.w3.org/2000/svg"><g clip-path="url(#clip0_2_60)"><path d="M0 18.125C0 19.16.864 20 1.929 20H16.07c1.066 0 1.93-.84 1.93-1.875V7.5H0v10.625zm12.857-7.656c0-.258.217-.469.482-.469h1.607c.266 0 .483.21.483.469v1.562a.477.477 0 01-.483.469H13.34a.477.477 0 01-.482-.469V10.47zm0 5c0-.258.217-.469.482-.469h1.607c.266 0 .483.21.483.469v1.562a.477.477 0 01-.483.469H13.34a.477.477 0 01-.482-.469V15.47zm-5.143-5c0-.258.217-.469.482-.469h1.608c.265 0 .482.21.482.469v1.562a.477.477 0 01-.482.469H8.196a.477.477 0 01-.482-.469V10.47zm0 5c0-.258.217-.469.482-.469h1.608c.265 0 .482.21.482.469v1.562a.477.477 0 01-.482.469H8.196a.477.477 0 01-.482-.469V15.47zm-5.143-5c0-.258.217-.469.483-.469H4.66c.265 0 .482.21.482.469v1.562a.477.477 0 01-.482.469H3.054a.477.477 0 01-.483-.469V10.47zm0 5c0-.258.217-.469.483-.469H4.66c.265 0 .482.21.482.469v1.562a.477.477 0 01-.482.469H3.054a.477.477 0 01-.483-.469V15.47zM16.071 2.5h-1.928V.625A.636.636 0 0013.5 0h-1.286a.636.636 0 00-.643.625V2.5H6.43V.625A.636.636 0 005.786 0H4.5a.636.636 0 00-.643.625V2.5H1.93C.864 2.5 0 3.34 0 4.375V6.25h18V4.375C18 3.34 17.136 2.5 16.071 2.5z" fill="#fff"/></g><defs><clipPath id="clip0_2_60"><path fill="#fff" d="M0 0h18v20H0z"/></clipPath></defs></svg>