<svg width="17.000000" height="13.000000" viewBox="0 0 17 13" fill="none" xmlns="http://www.w3.org/2000/svg" xmlns:xlink="http://www.w3.org/1999/xlink">
	<desc>
			Created with Pixso.
	</desc>
	<defs/>
	<path id="path" d="M3.33203 10.0472C1.04688 8.52539 0 6.5 0 6.5C0 6.5 2.61523 1.43103 8.49805 1.43103C9.34961 1.43103 10.1328 1.50293 10.8496 1.71875L10.3262 2.29785C9.73828 2.22595 9.15039 2.15405 8.49805 2.15405C3.26758 2.15405 0.783203 6.5 0.783203 6.5C0.783203 6.5 1.76367 8.23767 3.79102 9.53992L3.33203 10.0472ZM5.88281 6.5C5.88281 6.71582 5.88281 6.9353 5.94727 7.15112L6.53516 6.5C6.53516 5.92078 6.73047 5.41345 7.125 4.97815C7.51758 4.54285 8.04102 4.32703 8.49805 4.32703L9.08594 3.6759C8.89062 3.604 8.69336 3.604 8.49805 3.604C7.05859 3.604 5.88281 4.90625 5.88281 6.5ZM13.6641 2.95288L13.2051 3.46008C15.2324 4.76233 16.2129 6.5 16.2129 6.5C16.2129 6.5 13.7285 10.8459 8.49805 10.8459C7.8457 10.8459 7.25781 10.774 6.66992 10.7021L6.14648 11.2812C6.86328 11.4971 7.65039 11.5691 8.50195 11.5691C14.3848 11.5691 17 6.5 17 6.5C17 6.5 15.9512 4.47461 13.6641 2.95288ZM13.7207 0L2.62891 12.2845L3.27539 13L14.3711 0.71167L13.7207 0ZM9.87305 8.02185C9.47852 8.45728 9.02148 8.67297 8.49805 8.67297L7.91016 9.3241C8.10547 9.396 8.30273 9.396 8.49805 9.396C9.9375 9.396 11.1133 8.09375 11.1133 6.5C11.1133 6.28418 11.1133 6.0647 11.0488 5.84888L10.4609 6.5C10.4609 7.07922 10.2617 7.58655 9.87305 8.02185Z" fill="#103A58" fill-opacity="1.000000" fill-rule="nonzero"/>
</svg>
