<svg width="102" height="102" fill="none" xmlns="http://www.w3.org/2000/svg"><g clip-path="url(#clip0_15_404)"><path d="M1.32 62.237C.456 58.385 0 54.488 0 50.59 0 22.656 22.722 0 50.795 0c3.78 0 7.582.453 11.225 1.246-28.096 10.649-50.204 32.965-60.7 60.99zM90.776 19.37A50.174 50.174 0 0079.892 9.108C45.832 19.145 19.262 45.834 9.38 79.795c2.846 4.101 6.375 8.066 10.291 11.102C29.484 56.618 56.373 29.34 90.775 19.37zm3.598 57.252a49.788 49.788 0 006.716-18.759c-18.077 9.72-33.013 25.058-42.712 43.115 6.83-.997 13.41-3.466 19.261-7.091A242.376 242.376 0 00102 101.5c-2.117-8.27-4.645-16.879-7.627-24.877zm6.762-32.964a47.94 47.94 0 00-3.598-12.87c-31.396 10.377-56.1 35.48-66.322 66.86 4.12 1.721 8.424 2.831 12.886 3.443 10.542-25.85 31.147-46.853 57.034-57.433z" fill="url(#paint0_linear_15_404)"/></g><defs><linearGradient id="paint0_linear_15_404" x1="51" y1="0" x2="51" y2="101.5" gradientUnits="userSpaceOnUse"><stop stop-color="#5FC9F3"/><stop offset="1" stop-color="#55ABF5"/></linearGradient><clipPath id="clip0_15_404"><path fill="#fff" d="M0 0h102v102H0z"/></clipPath></defs></svg>