<svg width="102" height="102" fill="none" xmlns="http://www.w3.org/2000/svg"><g clip-path="url(#clip0_15_393)"><path d="M101.991 51c0-28.169-22.83-51-50.995-51S0 22.831 0 51c0 25.449 18.649 46.546 43.027 50.371V65.739H30.081V50.996h12.946V39.763c0-12.784 7.616-19.843 19.261-19.843 5.58 0 11.416.994 11.416.994v12.55h-6.426c-6.333 0-8.31 3.932-8.31 7.965V51h14.145l-2.261 14.743H58.969v35.632C83.347 97.55 101.996 76.453 101.996 51h-.005z" fill="url(#paint0_linear_15_393)"/></g><defs><linearGradient id="paint0_linear_15_393" x1="50.998" y1="0" x2="50.998" y2="101.375" gradientUnits="userSpaceOnUse"><stop stop-color="#5FC9F3"/><stop offset="1" stop-color="#55ABF5"/></linearGradient><clipPath id="clip0_15_393"><path fill="#fff" d="M0 0h102v102H0z"/></clipPath></defs></svg>