<svg width="102" height="102" fill="none" xmlns="http://www.w3.org/2000/svg"><path d="M51 2.04C23.96 2.04 2.04 23.96 2.04 51S23.96 99.96 51 99.96 99.96 78.04 99.96 51 78.04 2.04 51 2.04zm18.83 55.238s4.33 4.273 5.395 6.257c.03.041.046.082.056.102.434.73.536 1.296.322 1.719-.357.704-1.581 1.05-2 1.081h-7.65c-.53 0-1.642-.137-2.988-1.066-1.036-.724-2.056-1.912-3.05-3.07-1.484-1.724-2.77-3.213-4.065-3.213a1.56 1.56 0 00-.484.077c-.98.316-2.234 1.713-2.234 5.436 0 1.163-.918 1.831-1.566 1.831h-3.503c-1.194 0-7.41-.418-12.919-6.227-6.742-7.114-12.81-21.384-12.862-21.517-.382-.923.408-1.418 1.27-1.418h7.727c1.03 0 1.366.628 1.6 1.183.276.648 1.286 3.224 2.944 6.12 2.687 4.723 4.335 6.64 5.655 6.64.248-.002.491-.065.71-.183 1.723-.959 1.402-7.104 1.325-8.38 0-.239-.005-2.748-.887-3.952-.632-.872-1.709-1.203-2.361-1.326a2.81 2.81 0 011.015-.862c1.183-.591 3.315-.678 5.431-.678h1.178c2.295.03 2.887.179 3.718.388 1.683.403 1.719 1.489 1.57 5.207a81.107 81.107 0 00-.09 3.657c0 .306-.016.632-.016.979-.051 1.892-.112 4.039 1.224 4.921.174.11.375.168.581.169.464 0 1.862 0 5.646-6.493a49.57 49.57 0 003.034-6.497c.077-.133.301-.54.567-.699.195-.1.412-.15.632-.148h9.083c.99 0 1.668.148 1.795.53.225.608-.04 2.459-4.187 8.074l-1.851 2.443c-3.759 4.926-3.759 5.176.234 8.915z" fill="url(#paint0_linear_15_373)"/><defs><linearGradient id="paint0_linear_15_373" x1="51" y1="2.04" x2="51" y2="99.96" gradientUnits="userSpaceOnUse"><stop stop-color="#5FC9F3"/><stop offset="1" stop-color="#55ABF5"/></linearGradient></defs></svg>