<svg width="80" height="80" fill="none" xmlns="http://www.w3.org/2000/svg"><path d="M68.552 53.49c-2.24-.254-4.385-1.108-6.031-2.416-1.469-1.17-3.563-1.192-5.021 0-3.948 3.206-11.167 3.206-15.177-.158-1.406-1.181-3.438-.96-4.865.19-3.958 3.174-11.135 3.164-15.125-.18-1.406-1.18-3.468-.938-4.906.211-1.614 1.287-3.75 2.12-6.01 2.363-.823.084-1.417.822-1.417 1.656v3.396c0 .96.792 1.772 1.74 1.687 3-.263 5.843-1.202 8.27-2.731 5.886 3.649 14.271 3.596 20 0 5.886 3.649 14.271 3.596 20 0 2.428 1.497 5.303 2.457 8.24 2.72.948.085 1.74-.727 1.74-1.687v-3.333c.01-.843-.594-1.624-1.438-1.719zm0-15.188c-2.24-.253-4.385-1.108-6.031-2.416-1.469-1.17-3.563-1.191-5.021 0-3.948 3.207-11.167 3.207-15.177-.158-1.406-1.181-3.438-.96-4.865.19-3.958 3.175-11.135 3.164-15.125-.18-1.406-1.18-3.468-.938-4.906.212-1.614 1.286-3.75 2.12-6.01 2.362-.823.085-1.417.823-1.417 1.656v3.396c0 .96.792 1.772 1.74 1.688 3-.264 5.843-1.203 8.27-2.732 5.886 3.65 14.271 3.597 20 0 5.886 3.65 14.271 3.597 20 0 2.428 1.498 5.303 2.458 8.24 2.721.948.085 1.74-.727 1.74-1.687V40.02c.01-.844-.594-1.624-1.438-1.72zm0-15.188c-2.24-.263-4.385-1.107-6.031-2.415-1.469-1.17-3.563-1.192-5.021 0-3.948 3.206-11.167 3.206-15.177-.158-1.406-1.181-3.438-.96-4.865.19-3.958 3.174-11.135 3.164-15.125-.18-1.406-1.18-3.468-.938-4.906.211-1.614 1.287-3.75 2.12-6.01 2.363-.823.084-1.417.822-1.417 1.656v3.396c0 .96.792 1.772 1.74 1.687 3-.263 5.843-1.202 8.27-2.731 5.886 3.649 14.271 3.596 20 0 5.886 3.649 14.271 3.596 20 0 2.428 1.497 5.303 2.457 8.24 2.72.948.085 1.74-.727 1.74-1.687v-3.333c.01-.843-.594-1.624-1.438-1.719z" fill="url(#paint0_linear_47_64)"/><defs><linearGradient id="paint0_linear_47_64" x1="39.995" y1="19.755" x2="39.995" y2="60.245" gradientUnits="userSpaceOnUse"><stop stop-color="#5FC9F3"/><stop offset="1" stop-color="#55ABF5"/></linearGradient></defs></svg>