<svg width="76" height="60" fill="none" xmlns="http://www.w3.org/2000/svg"><path d="M74.1 49h-1.9c-3.092 0-5.439-.987-6.66-2.098-1.058-.962-2.335-1.652-3.773-1.652H59.83c-1.438 0-2.716.69-3.773 1.652C54.838 48.013 52.492 49 49.4 49s-5.439-.987-6.66-2.098c-1.058-.962-2.335-1.652-3.773-1.652H37.03c-1.438 0-2.716.69-3.773 1.652C32.038 48.013 29.692 49 26.6 49s-5.439-.987-6.66-2.098c-1.058-.962-2.335-1.652-3.773-1.652H14.23c-1.438 0-2.716.69-3.773 1.652C9.238 48.013 6.892 49 3.8 49H1.9C.85 49 0 49.84 0 50.875v3.75C0 55.661.85 56.5 1.9 56.5h1.9c4.586 0 8.636-1.428 11.4-3.731 2.765 2.304 6.814 3.731 11.4 3.731s8.636-1.428 11.4-3.731c2.764 2.304 6.814 3.731 11.4 3.731s8.636-1.428 11.4-3.731c2.765 2.304 6.814 3.731 11.4 3.731h1.9c1.05 0 1.9-.84 1.9-1.875v-3.75C76 49.839 75.15 49 74.1 49zm-47.5-3.75V34h22.8v11.25c2.27 0 3.665-.722 4.084-1.104A10.291 10.291 0 0157 42.03V15.25c0-2.067 1.705-3.75 3.8-3.75 2.095 0 3.8 1.683 3.8 3.75v1.875c0 1.036.85 1.875 1.9 1.875h3.8c1.05 0 1.9-.84 1.9-1.875V15.25C72.2 9.046 67.087 4 60.8 4S49.4 9.046 49.4 15.25V26.5H26.6V15.25c0-2.067 1.705-3.75 3.8-3.75 2.095 0 3.8 1.683 3.8 3.75v1.875c0 1.036.85 1.875 1.9 1.875h3.8c1.05 0 1.9-.84 1.9-1.875V15.25C41.8 9.046 36.687 4 30.4 4S19 9.046 19 15.25v26.777a10.312 10.312 0 013.516 2.118c.42.383 1.814 1.105 4.084 1.105z" fill="url(#paint0_linear_47_78)"/><defs><linearGradient id="paint0_linear_47_78" x1="38" y1="4" x2="38" y2="56.5" gradientUnits="userSpaceOnUse"><stop stop-color="#5FC9F3"/><stop offset="1" stop-color="#55ABF5"/></linearGradient></defs></svg>