<svg width="32" height="32" viewBox="0 0 32 32" fill="none" xmlns="http://www.w3.org/2000/svg">
<path d="M15.9792 16.6169C9.61442 16.6289 4.34922 21.668 4.03125 28.0362C4.02278 28.2169 4.05118 28.3974 4.11471 28.5668C4.17825 28.7362 4.27558 28.8909 4.4008 29.0215C4.52602 29.1521 4.6765 29.2558 4.84309 29.3264C5.00967 29.3969 5.18887 29.4329 5.36979 29.432H26.6406C26.8207 29.4315 26.9987 29.3945 27.1641 29.3233C27.3294 29.2521 27.4787 29.1481 27.6028 29.0177C27.7269 28.8873 27.8233 28.7331 27.8862 28.5644C27.9491 28.3957 27.9772 28.216 27.9687 28.0362C27.6504 21.6599 22.3728 16.6176 16 16.6169H15.9792Z" fill="white"/>
<path d="M16.0005 2.56799C12.6266 2.56799 9.876 5.33153 9.87598 8.70917C9.87597 12.0868 12.6266 14.8599 16.0005 14.8599C19.3744 14.8599 22.1345 12.0868 22.1345 8.70917C22.1345 5.33153 19.3744 2.56799 16.0005 2.56799Z" fill="white"/>
</svg>
