<svg width="17.000000" height="10.000000" viewBox="0 0 17 10" fill="none" xmlns="http://www.w3.org/2000/svg" xmlns:xlink="http://www.w3.org/1999/xlink">
	<desc>
			Created with Pixso.
	</desc>
	<defs/>
	<ellipse id="circle" cx="8.500000" cy="5.000000" rx="0.653846" ry="0.714286" fill="#103A58" fill-opacity="1.000000"/>
	<path id="path" d="M8.5 2.14288C7.0625 2.14288 5.88477 3.42859 5.88477 5C5.88477 6.57147 7.0625 7.85718 8.5 7.85718C9.93945 7.85718 11.1152 6.57147 11.1152 5C11.1152 3.42859 9.93945 2.14288 8.5 2.14288ZM8.5 7.14288C7.38867 7.14288 6.53906 6.21436 6.53906 5C6.53906 3.78571 7.38867 2.85718 8.5 2.85718C9.61133 2.85718 10.4609 3.78571 10.4609 5C10.4609 6.21436 9.61133 7.14288 8.5 7.14288Z" fill="#103A58" fill-opacity="1.000000" fill-rule="nonzero"/>
	<path id="path" d="M8.5 0C2.61523 0 0 5 0 5C0 5 2.61523 10 8.5 10C14.3848 10 17 5 17 5C17 5 14.3848 0 8.5 0ZM8.5 9.28571C3.26953 9.28571 0.785156 5 0.785156 5C0.785156 5 3.26953 0.714294 8.5 0.714294C13.7305 0.714294 16.2148 5 16.2148 5C16.2148 5 13.7305 9.28571 8.5 9.28571Z" fill="#103A58" fill-opacity="1.000000" fill-rule="nonzero"/>
</svg>
